<?xml version="1.0" encoding="UTF-8"?>
<svg id="Layer_1" data-name="Layer 1" xmlns="http://www.w3.org/2000/svg" viewBox="0 0 1000 1065.56">
  <defs>
    <style>
      .cls-1 {
        fill: #ec008c;
      }
    </style>
  </defs>
  <path class="cls-1" d="M811.27,215.18c6.34-1.09,13.42-.49,18.89,3.06,13.83,9,37.41,68.46,42.93,85.93,64.61,204.37-41.18,448.42-201.65,578.86-105.99,86.16-254.29,138.84-386.78,81.3-9.52-4.13-33.86-15.28-38.76-23.68-15.58-26.68,21.34-36.93,37.89-46.73,95.68-56.67,160.6-138.11,212.35-235.34,76.39-143.51,91.11-298.59,234.03-399.65,15.95-11.28,63.54-40.74,81.1-43.76Z"/>
  <path class="cls-1" d="M581.53,95.68c26.8-1.39,55.14,1.17,81.32,6.9,12.34,2.7,31.53,5.95,37.27,18.53,9.36,20.5-16.54,36.57-28.66,49.89-69.56,76.35-125.31,162.68-166,257.78-52.5,122.69-104.66,249.13-218.16,329.17-30.61,21.59-90.34,52.17-127.42,55.9-25.35,2.55-29.37-21.21-35.09-40.35C40.34,490.94,280.2,111.31,581.53,95.68Z"/>
</svg>