<?xml version="1.0" encoding="UTF-8"?>
<svg id="Layer_1" data-name="Layer 1" xmlns="http://www.w3.org/2000/svg" viewBox="0 0 1000 1065.56">
  <path d="M748.61,525.06c4.31-.74,9.13-.33,12.84,2.08,9.41,6.12,25.44,46.55,29.19,58.43,43.94,138.97-28,304.92-137.12,393.62-72.07,58.59-172.92,94.41-263.01,55.28-6.47-2.81-23.02-10.39-26.36-16.1-10.6-18.14,14.51-25.11,25.77-31.78,65.06-38.54,109.21-93.91,144.4-160.03,51.94-97.59,61.95-203.04,159.14-271.76,10.85-7.67,43.21-27.7,55.15-29.76Z"/>
  <path d="M592.38,443.81c18.23-.95,37.49.8,55.3,4.69,8.39,1.84,21.44,4.04,25.34,12.6,6.36,13.94-11.25,24.87-19.49,33.92-47.3,51.92-85.21,110.62-112.88,175.29-35.7,83.43-71.17,169.41-148.34,223.83-20.82,14.68-61.43,35.48-86.65,38.01-17.24,1.73-19.97-14.42-23.86-27.44-57.42-192.13,105.68-450.28,310.58-460.91Z"/>
  <path d="M673.08,23.89c120.4-8.08,255.75,74.49,291.59,191.83,11.99,39.25,13.06,96.69-12.14,131.38-4.16,5.73-12.53,7.35-17.98,2.26-2.77-2.58-11.38-21.26-14.69-26.55-25.8-41.19-66.55-72.68-108.86-95.65-84.45-45.83-179.29-52.46-224.31-151.88-4.21-9.31-9.11-15.83.45-23.72,18.24-15.05,62.5-26.1,85.95-27.67Z"/>
  <path d="M534.99,120.62c2.72-.56,6.47-.55,8.96.75,23.56,22.66,48.29,43.6,75.83,61.35,74.31,47.88,164.47,61.6,224.74,132.1,15.86,18.55,37.15,55.04,39.11,79.55.99,12.32-6.18,13.32-15.8,16.17-41.16,12.17-87.9,12.47-129.64,3.03-112.12-25.35-236.62-144.42-215.34-268.05,1.28-7.42,3.5-23.11,12.13-24.9Z"/>
  <path d="M323.2,181.65c4.17.55,12.01,9.42,14.91,12.8,65.39,76.1,27.02,226.38-62.48,267.59-18.51,8.52-47.63,14.13-67.38,7.5-4.14-1.39-6.9-5.86-5.34-10.06.91-2.46,14.13-14.47,17.21-18.15,23.92-28.55,35.58-65.99,41.46-102.29,5.2-32.09,1.96-63.02,12.54-94.25,6.3-18.6,26.18-49.57,42.48-60.79,2.06-1.42,3.92-2.69,6.61-2.34Z"/>
  <path d="M268.78,160.54c2.84.5,6.27,3.49,6.41,6.5.24,5.16-10.88,24.64-13.62,31.16-3.04,7.23-6.5,15.93-8.86,23.35-22.22,70.12-7.41,169.64-82.81,211.61-5.99,3.33-10.29,4.9-15.16-1.15-9.39-11.68-19.76-38.22-23.5-52.92-18.99-74.67,17.97-172.52,88.48-207.56,11.39-5.66,36.61-13.18,49.05-10.97Z"/>
</svg>