<?xml version="1.0" encoding="UTF-8"?>
<svg id="Layer_1" data-name="Layer 1" xmlns="http://www.w3.org/2000/svg" viewBox="0 0 91.05 83.68">
  <path d="M76.52,26.38l-13.06-13.12v-1.59c0-.88.69-1.56,1.56-1.56h9.94c.88,0,1.56.69,1.56,1.56v14.72Z"/>
  <path d="M86.65,43.02c-.38.94-1.28,1.53-2.31,1.53h-7.22v26.59c0,5.03-4.06,9.12-9.09,9.12h-10.78v-20.38c0-4.31-3.5-7.81-7.81-7.81h-7.81c-4.31,0-7.81,3.5-7.81,7.81v20.38h-10.78c-5.03,0-9.09-4.09-9.09-9.12v-26.59h-7.22c-1.03,0-1.94-.59-2.31-1.53-.41-.94-.19-2.03.53-2.75L39.05,6.02c3.47-3.47,9.47-3.47,12.94,0l11.44,11.44,13.06,13.12,8.37,8.41,1.25,1.28c.72.72.94,1.81.53,2.75h0Z"/>
</svg>