<?xml version="1.0" encoding="UTF-8"?>
<svg id="Layer_1" data-name="Layer 1" xmlns="http://www.w3.org/2000/svg" viewBox="0 0 91.05 83.68">
  <path d="M11.76,75.06c0,2.88,2.34,5.2,5.2,5.2h13.74v-34.7s-18.93,0-18.93,0v29.51Z"/>
  <path d="M60.38,80.25h13.71c2.88,0,5.2-2.31,5.2-5.2v-29.51h-18.91v34.7Z"/>
  <path d="M79.29,22.18h-17.19s.01,0,.01-.01c4.23-3.99,5.12-7.67,5.12-10.05s-.97-4.77-2.74-6.44c-1.94-1.84-7.4-5.21-16.15,3.07-1.16,1.1-2.08,2.34-2.8,3.64-.72-1.3-1.64-2.54-2.8-3.64C33.98.47,28.52,3.84,26.58,5.67c-1.77,1.67-2.74,3.96-2.74,6.44s.89,6.06,5.11,10.05c0,0,.01,0,.01.01H11.76c-2.86,0-5.2,2.31-5.2,5.2v7.79c0,2.86,2.34,5.2,5.2,5.2h18.93v-16.8c1.64,1.13,3.43,1.9,5.2,2.44v54.27h19.28V26c1.78-.54,3.57-1.32,5.21-2.45v16.81h18.91c2.88,0,5.2-2.33,5.2-5.19v-7.79c0-2.88-2.32-5.2-5.2-5.2h0ZM29.03,12.11c0-1.05.38-1.97,1.11-2.66.61-.57,1.32-.81,2.08-.81,2.5,0,5.52,2.54,6.94,3.87,2.82,2.67,3.56,6.85,3.73,9.46-2.81-.15-7.44-.82-10.37-3.59-2.25-2.12-3.49-4.35-3.49-6.27h0ZM48.18,21.98c.17-2.62.92-6.81,3.72-9.46,1.41-1.34,4.43-3.87,6.94-3.87.76,0,1.47.23,2.08.81.73.69,1.12,1.61,1.11,2.66,0,1.92-1.24,4.15-3.49,6.28-2.93,2.76-7.55,3.44-10.36,3.59h0Z"/>
</svg>