<?xml version="1.0" encoding="UTF-8"?>
<svg id="Layer_1" data-name="Layer 1" xmlns="http://www.w3.org/2000/svg" viewBox="0 0 91.05 83.68">
  <path d="M79.03,34.05c1.96-1.13,2.63-3.64,1.5-5.6l-5.9-10.22c-1.13-1.96-3.64-2.63-5.6-1.5l-.17.1c-2.69,1.55-6,1.55-8.68-.02-.11-.06-.22-.13-.33-.19-2.68-1.53-4.32-4.4-4.32-7.49v-.16c0-2.3-1.84-4.13-4.1-4.13h-11.8c-2.26,0-4.1,1.84-4.1,4.1v.19c0,3.09-1.64,5.96-4.32,7.49-.11.06-.22.13-.33.19-2.68,1.57-5.99,1.57-8.68.02l-.17-.1c-1.96-1.13-4.47-.46-5.6,1.5l-5.9,10.22c-1.13,1.96-.46,4.47,1.5,5.6,2.78,1.61,4.5,4.58,4.49,7.79,0,3.21-1.71,6.18-4.49,7.79-1.96,1.13-2.63,3.64-1.5,5.6l5.9,10.22c1.13,1.96,3.64,2.63,5.6,1.5l.17-.1c2.69-1.55,6-1.55,8.68.02.11.06.22.13.33.19,2.68,1.53,4.32,4.4,4.32,7.49v.16c0,2.3,1.84,4.13,4.1,4.13h11.8c2.26,0,4.1-1.84,4.1-4.1v-.19c0-3.09,1.64-5.96,4.32-7.49.11-.06.22-.13.33-.19,2.68-1.57,5.99-1.57,8.68-.02l.17.1c1.96,1.13,4.47.46,5.6-1.5l5.9-10.22c1.13-1.96.46-4.47-1.5-5.6-2.78-1.61-4.5-4.58-4.49-7.79,0-3.21,1.71-6.18,4.49-7.79ZM45.54,55.84c-7.73,0-14-6.27-14-14s6.27-14,14-14,14,6.27,14,14-6.27,14-14,14Z"/>
</svg>