<?xml version="1.0" encoding="UTF-8"?>
<svg id="Layer_1" data-name="Layer 1" xmlns="http://www.w3.org/2000/svg" viewBox="0 0 1000 1065.56">
  <path d="M37.98,1063.21c-19.28-5.16-33.32-19.42-35.99-39.51V412.72s6.19-17.81,6.19-17.81c24.11-30.89,43.16-71.58,67.39-101.61,5.54-6.87,18.75-18.08,27.92-18.08h202.5c4.07-127.8,105.32-235.97,231.63-251.87,194.52-24.48,365.68,115.83,373.41,312.33l-.06,262.84,84.45,58.77,2.51,5.49.09,164.96c-.63,5.26-4.1,9.2-8.99,11.01-59.38.47-119.33,1.42-178.58-.48-6.83-2.38-8.02-9.04-8.5-15.5,2.89-50.18-3.69-104.38,0-154.09.37-4.94,1.21-10.41,5.1-13.9l77.94-56.06,1.01-1.99.03-263.05c-8.64-181.26-167.76-309.32-347.4-285.32-112.88,15.09-204.1,112.36-207.64,226.86h202.5c5.51,0,18.93,7.9,23.05,11.95,21.67,35.9,54.03,73.04,73.26,109.74,2.61,4.99,4.23,10.27,5.18,15.82v611.98c-2.76,19.78-17.01,33.73-35.99,38.51H37.98ZM111.78,299.51c-8.07.91-11.09,2.62-16.21,8.79-22.7,35.21-47.72,69.18-68.52,105.48l-.1,606.98c.45,8.89,7.6,16.64,16.49,17.51l554.38-.72c9.23-3.69,12.46-11.33,13.21-20.79V420.67s-1.81-10.19-1.81-10.19c-14.55-21.83-28.63-43.99-43.2-65.8-6.83-10.21-18.87-31.76-26.49-39.51-4.18-4.26-9.39-5.08-15.05-5.95l-412.69.28ZM972.98,670.21l-74.49-49.96-71.51,51.46v142.5h146v-144Z"/>
  <path d="M84.33,507.56c5.41-5.48,13.91-10.32,21.45-12.05,138.99-3.04,278.54-.39,417.74-1.33,25.49,2.92,40.85,20.07,42.51,45.49v404.09c-1.43,20.47-13.03,37.2-33.04,42.97-139.88,3.49-280.42.46-420.54,1.53-21.32-2.17-38.69-18.93-40.51-40.49v-414.08c.8-9.13,6.02-19.67,12.39-26.11ZM112.72,519.45c-5.96,1-13.51,7.02-15.05,12.95l.08,418.55c3.01,7.09,9.67,12.47,17.69,12.31l412.26-.82c8.24-3.19,13.33-10.81,13.32-19.68v-404.08c-.37-10.31-8.14-18.74-18.5-19.5l-409.8.28Z"/>
  <path d="M269.72,316.44l96.68-.14c19.36,4.9,17.34,29.47-3.02,31.8-28.33-1.91-60.94,2.98-88.77-.02-22.52-2.43-20.84-28.74-4.89-31.64Z"/>
  <path d="M321.97,787.2l-8.95-30.53c-13.38-36.67-31.64-71.55-54.03-103.46,33.16,82.4,52.17,173.68,31.98,262-27.31-12.82-55.01-31.7-75.51-53.99-81.21-88.3-47.68-214.55,1.11-309.93,4.04-.94,61.88,39.78,69.3,45.52,34.11,26.4,68.62,59.52,83.89,100.72-22.67,25.65-37.59,57.15-47.8,89.67Z"/>
  <path d="M437.97,661.21c22.53,51.56,43.48,109.12,27.28,165.76-15.12,52.88-63.29,87.3-113.26,104.23,34.05-45.59,57.46-99.9,54.99-157.98l-13.24,37.24c-16.02,39.77-33.88,80.65-65.26,110.74-2.29.45-1.25-1-1.61-2.35-27.73-103.84,17.64-183.76,96.65-247.62,1.95-1.58,13.12-10.99,14.46-10.02Z"/>
</svg>